# xmcd
#
# Track frame offsets: 
#        150
#        11979
#        24815
#        36899
#        49666
#        61299
#        74859
#        88489
#        100266
#        113349
#        126483
#        138976
#        149632
#        163182
#        173714
#        187444
#        201958
#        216059
#
# Disc length: 2917 seconds
#
# Revision: 0
# Processed by: cddbd v1.5PL3 Copyright (c) Steve Scherf et al.
# Submitted via: ExactAudioCopy v0.95a3
#
DISCID=1b0b6312
DTITLE=Sunnyland Slim - Highway 61
DYEAR=2004
DGENRE=Blues
TTITLE0=When I Was Young
TTITLE1=Bassology
TTITLE2=Worried About My Baby
TTITLE3=Down Home Child
TTITLE4=Sunnyland Special
TTITLE5=Mary Lee
TTITLE6=Leaving Your Town
TTITLE7=Shake It Baby
TTITLE8=Woman Trouble
TTITLE9=City of New Orleans
TTITLE10=That Woman
TTITLE11=Four Day Bounce
TTITLE12=Highway 61
TTITLE13=It's You Baby
TTITLE14=Highway 61
TTITLE15=Highway 61 (unissued-take 2)
TTITLE16=Highway 61 (unissued-take 3)
TTITLE17=Blues (unissued)
EXTD=
EXTT0=
EXTT1=
EXTT2=
EXTT3=
EXTT4=
EXTT5=
EXTT6=
EXTT7=
EXTT8=
EXTT9=
EXTT10=
EXTT11=
EXTT12=
EXTT13=
EXTT14=
EXTT15=
EXTT16=
EXTT17=
PLAYORDER=
